<svg xmlns="http://www.w3.org/2000/svg" width="1000" height="650">
<rect width="100%" height="100%" fill="white"/>
<text x="30" y="35" font-size="22" font-family="Arial">D2 Causal KG Snapshot</text>
<text x="760" y="35" font-size="16" font-family="Arial">Node types</text>
<g font-family="Arial"><text x="30" y="84" font-size="14">improves 8384</text><rect x="180" y="70" width="520" height="20" fill="#4f83cc"/><text x="30" y="118" font-size="14">has_component 6210</text><rect x="180" y="104" width="385" height="20" fill="#4f83cc"/><text x="30" y="152" font-size="14">supports 3470</text><rect x="180" y="138" width="215" height="20" fill="#4f83cc"/><text x="30" y="186" font-size="14">causes_risk 1630</text><rect x="180" y="172" width="101" height="20" fill="#4f83cc"/><text x="30" y="220" font-size="14">caused_by 1499</text><rect x="180" y="206" width="92" height="20" fill="#4f83cc"/><text x="30" y="254" font-size="14">evidenced_by 358</text><rect x="180" y="240" width="22" height="20" fill="#4f83cc"/><text x="30" y="288" font-size="14">replaces 282</text><rect x="180" y="274" width="17" height="20" fill="#4f83cc"/><text x="760" y="70" font-size="14">Performance: 9433</text><text x="760" y="94" font-size="14">Cathode: 3703</text><text x="760" y="118" font-size="14">Claim: 3404</text><text x="760" y="142" font-size="14">Failure Mode: 2625</text><text x="760" y="166" font-size="14">Paper: 2583</text><text x="760" y="190" font-size="14">Operating Condition: 2302</text><text x="760" y="214" font-size="14">Reactor: 2063</text><text x="760" y="238" font-size="14">Gas Feed: 2023</text><text x="760" y="262" font-size="14">Electrolyte: 1593</text><text x="760" y="286" font-size="14">Diagnosis: 1042</text><text x="760" y="310" font-size="14">Anode: 997</text><text x="760" y="334" font-size="14">Separator: 805</text><text x="760" y="358" font-size="14">Next Hypothesis: 46</text></g>
</svg>